<svg width="512" height="513" viewBox="0 0 512 513" fill="none" xmlns="http://www.w3.org/2000/svg">
<path opacity="0.0526316" d="M39.78 414.286C50.5831 429.112 85.1113 453.921 136.798 434.551C201.407 410.339 226.395 346.157 284.06 312.878C326.62 288.316 440.983 251.446 506.743 292.188" stroke="#F5F5F5"/>
<path opacity="0.105263" d="M29.124 383.205C38.3656 399.115 70.1906 427.511 123.557 413.821C190.266 396.707 221.621 335.571 282.341 308.693C327.158 288.854 444.63 264.518 505.901 312.126" stroke="#F5F5F5"/>
<path opacity="0.157895" d="M21.0751 351.704C28.6539 368.523 57.4271 400.196 111.889 392.334C179.966 382.507 217.344 325.088 280.456 304.903C327.037 290.006 446.331 278.469 502.443 332.424" stroke="#F5F5F5"/>
<path opacity="0.210526" d="M15.6582 320.067C21.4912 337.611 46.8973 372.213 101.857 370.267C170.557 367.834 213.549 314.759 278.36 301.491C326.196 291.697 446.006 293.087 496.343 352.796" stroke="#F5F5F5"/>
<path opacity="0.263158" d="M12.8741 288.579C16.8974 306.656 38.658 343.808 93.5142 347.798C162.084 352.787 210.219 304.638 276.02 298.43C324.586 293.849 443.598 308.149 487.609 372.959" stroke="#F5F5F5"/>
<path opacity="0.315789" d="M12.6964 257.521C14.8658 275.933 32.7426 315.228 86.8939 325.111C154.583 337.466 207.332 294.771 273.402 295.693C322.166 296.373 439.078 323.428 476.28 392.628" stroke="#F5F5F5"/>
<path opacity="0.368421" d="M15.0618 227.174C15.3537 245.719 29.1508 286.726 82.0039 302.395C148.07 321.98 204.857 285.207 270.471 293.248C318.899 299.182 432.429 338.695 462.415 411.527" stroke="#F5F5F5"/>
<path opacity="0.421053" d="M19.8873 197.81C18.2984 216.285 27.8646 258.555 78.8404 279.837C142.56 306.439 202.762 275.99 267.202 291.061C314.764 302.185 423.668 353.723 446.109 429.39" stroke="#F5F5F5"/>
<path opacity="0.473684" d="M27.062 169.686C23.6097 187.888 28.8401 230.958 77.3802 257.62C138.055 290.946 201.013 267.156 263.573 289.093C309.747 305.284 412.831 368.282 427.483 445.955" stroke="#F5F5F5"/>
<path opacity="0.526316" d="M36.4423 143.046C31.1645 160.777 32.0019 204.174 77.5744 235.924C134.54 275.611 199.564 258.739 259.558 287.301C303.838 308.383 399.974 382.151 406.675 460.977" stroke="#F5F5F5"/>
<path opacity="0.578947" d="M47.8701 118.126C40.8245 135.19 37.2598 178.44 79.3654 214.93C131.997 260.541 198.374 250.774 255.146 285.648C297.047 311.389 385.182 395.119 383.858 474.236" stroke="#F5F5F5"/>
<path opacity="0.631579" d="M61.1573 95.1323C52.4212 111.343 44.4933 153.972 82.6708 194.802C130.393 245.839 197.396 243.282 250.322 284.087C289.386 314.204 368.553 406.979 359.219 485.52" stroke="#F5F5F5"/>
<path opacity="0.684211" d="M76.1004 74.2574C65.7695 89.4375 53.5654 130.978 87.3963 175.701C129.685 231.604 196.58 236.285 245.082 282.574C280.879 316.738 350.212 417.541 332.971 494.645" stroke="#F5F5F5"/>
<path opacity="0.736842" d="M92.4747 55.6673C80.6622 69.6503 64.3155 109.648 93.4294 157.773C129.822 217.929 195.876 229.798 239.421 281.063C271.561 318.9 330.299 426.627 305.339 501.449" stroke="#F5F5F5"/>
<path opacity="0.789474" d="M110.039 39.5049C96.8742 52.1376 76.5641 90.1532 100.642 141.154C130.739 204.905 195.229 223.831 233.341 279.51C261.47 320.606 308.971 434.076 276.565 505.797" stroke="#F5F5F5"/>
<path opacity="0.842105" d="M128.545 25.8829C114.172 37.0269 90.1213 72.6444 108.899 125.962C132.371 192.609 194.59 218.385 226.851 277.869C250.662 321.772 286.404 439.742 246.909 507.577" stroke="#F5F5F5"/>
<path opacity="0.894737" d="M147.727 14.8902C132.304 24.4234 104.775 57.2524 118.047 112.303C134.637 181.116 193.903 213.459 219.96 276.096C239.192 322.326 262.784 443.504 216.632 506.708" stroke="#F5F5F5"/>
<path opacity="0.947368" d="M167.314 6.58624C151.009 14.4042 120.305 44.085 127.926 100.265C137.452 170.49 193.116 209.047 212.683 274.15C227.125 322.2 238.309 445.258 186.004 503.14" stroke="#F5F5F5"/>
<path d="M187.034 1C170.026 7.01704 136.483 33.2246 138.369 89.9184C140.728 160.786 192.179 205.134 205.042 271.99C214.536 321.334 213.189 444.924 155.306 496.848" stroke="#F5F5F5"/>
</svg>
