<svg width="512" height="512" viewBox="0 0 512 512" fill="none" xmlns="http://www.w3.org/2000/svg">
<g clip-path="url(#clip0_222_1356)">
<path opacity="0.0344828" d="M77.765 262.313C53.7201 254.251 57.7464 219.149 83.095 215.844L149.395 207.202C164.447 205.24 174.878 190.972 172.063 176.196L159.954 112.641C155.353 88.4937 186.079 73.4418 201.997 92.046L250.44 148.667C259.34 159.069 274.976 160.575 286.041 152.096L346.274 105.941C366.064 90.7763 392.704 111.353 382.725 134.097L356.46 193.955C350.354 207.872 357.319 223.815 371.598 228.602L434.488 249.687C458.533 257.749 454.507 292.851 429.158 296.156L362.858 304.798C347.805 306.76 337.374 321.028 340.19 335.804L352.299 399.358C356.9 423.506 326.173 438.558 310.256 419.954L261.812 363.333C252.913 352.931 237.277 351.425 226.211 359.904L165.979 406.058C146.189 421.224 119.549 400.647 129.528 377.903L155.793 318.045C161.899 304.128 154.934 288.185 140.655 283.397L77.765 262.313Z" stroke="#F5F5F5" stroke-width="2"/>
<path opacity="0.0689655" d="M80.9403 254.195C57.3785 244.987 63.3921 210.196 88.9058 208.111L153.28 202.85C168.427 201.612 179.654 187.9 177.69 173.037L169.519 111.197C166.306 86.8819 197.901 73.3755 212.737 92.722L256.353 149.597C264.661 160.429 280.239 162.69 291.793 154.74L352.454 112.999C373.089 98.801 398.582 120.593 387.326 142.808L358.701 199.308C351.821 212.887 357.875 229.107 371.863 234.574L431.312 257.805C454.874 267.013 448.86 301.804 423.347 303.889L358.972 309.15C343.826 310.388 332.598 324.101 334.562 338.963L342.733 400.803C345.946 425.118 314.352 438.625 299.515 419.278L255.899 362.403C247.592 351.571 232.013 349.31 220.46 357.26L159.798 399.001C139.164 413.199 113.67 391.407 124.926 369.192L153.551 312.693C160.431 299.113 154.378 282.893 140.39 277.427L80.9403 254.195Z" stroke="#F5F5F5" stroke-width="2"/>
<path opacity="0.103448" d="M84.4932 246.375C61.4757 236.044 69.446 201.684 95.0592 200.825L157.37 198.735C172.57 198.225 184.557 185.118 183.448 170.22L178.983 110.27C177.166 85.8613 209.554 73.9626 223.27 94.0004L262.133 150.779C269.828 162.021 285.324 165.039 297.344 157.637L358.05 120.252C379.474 107.058 403.781 130 391.286 151.621L360.597 204.724C352.971 217.92 358.103 234.362 371.763 240.492L427.759 265.626C450.777 275.957 442.806 310.317 417.193 311.176L354.882 313.266C339.682 313.776 327.696 326.883 328.805 341.78L333.269 401.73C335.087 426.139 302.698 438.038 288.983 418L250.119 361.222C242.424 349.979 226.929 346.961 214.909 354.364L154.203 391.749C132.779 404.942 108.472 382.001 120.967 360.38L151.656 307.276C159.282 294.08 154.149 277.639 140.49 271.508L84.4932 246.375Z" stroke="#F5F5F5" stroke-width="2"/>
<path opacity="0.137931" d="M88.4023 238.865C65.9893 227.435 75.8764 193.624 101.523 193.994L161.649 194.863C176.861 195.083 189.566 182.629 189.31 167.748L188.313 109.846C187.893 85.4183 220.995 75.1866 233.552 95.8631L267.768 152.202C274.831 163.832 290.219 167.61 302.682 160.774L363.055 127.66C385.212 115.507 408.296 139.534 394.603 160.497L362.146 210.185C353.804 222.954 358.011 239.561 371.305 246.34L423.85 273.135C446.263 284.565 436.376 318.377 410.729 318.006L350.603 317.137C335.391 316.917 322.686 329.371 322.942 344.252L323.939 402.154C324.36 426.582 291.257 436.814 278.7 416.137L244.484 359.798C237.421 348.168 222.034 344.39 209.571 351.226L149.197 384.34C127.04 396.493 103.956 372.466 117.649 351.503L150.107 301.816C158.448 289.046 154.241 272.439 140.947 265.66L88.4023 238.865Z" stroke="#F5F5F5" stroke-width="2"/>
<path opacity="0.172414" d="M92.6472 231.677C70.8976 219.177 82.6528 186.025 108.267 187.627L166.099 191.243C181.283 192.192 194.661 180.435 195.253 165.621L197.478 109.912C198.452 85.5383 232.181 77.0289 243.546 98.2896L273.248 153.857C279.66 165.852 294.912 170.393 307.794 164.142L367.468 135.186C390.3 124.106 412.129 149.158 397.282 169.4L363.348 215.669C354.324 227.972 357.605 244.69 370.499 252.1L419.605 280.323C441.355 292.823 429.6 325.975 403.986 324.373L346.154 320.757C330.969 319.808 317.592 331.565 317 346.379L314.774 402.088C313.801 426.462 280.072 434.971 268.707 413.71L239.004 358.143C232.592 346.148 217.34 341.607 204.458 347.858L144.785 376.814C121.953 387.894 100.123 362.843 114.97 342.6L148.905 296.331C157.928 284.028 154.647 267.31 141.754 259.9L92.6472 231.677Z" stroke="#F5F5F5" stroke-width="2"/>
<path opacity="0.206897" d="M97.2067 224.823C76.1784 211.282 89.745 178.897 115.26 181.728L170.703 187.879C185.818 189.556 199.821 178.537 201.251 163.839L206.447 110.451C208.807 86.2042 243.071 79.4679 253.212 101.257L278.565 155.733C284.306 168.069 299.394 173.376 312.669 167.729L371.289 142.79C394.736 132.816 415.28 158.831 399.328 178.296L364.204 221.157C354.535 232.957 356.894 249.732 369.351 257.754L415.045 287.177C436.074 300.718 422.507 333.103 396.992 330.272L341.549 324.121C326.434 322.444 312.431 333.463 311.001 348.161L305.805 401.549C303.445 425.796 269.181 432.532 259.041 410.743L233.687 356.267C227.946 343.931 212.858 338.624 199.584 344.271L140.963 369.21C117.516 379.184 96.9721 353.17 112.924 333.704L148.048 290.843C157.717 279.043 155.358 262.268 142.901 254.247L97.2067 224.823Z" stroke="#F5F5F5" stroke-width="2"/>
<path opacity="0.241379" d="M102.061 218.314C81.8101 203.766 97.1242 172.248 122.473 176.303L175.444 184.778C190.45 187.179 205.026 176.933 207.283 162.398L215.193 111.446C218.926 87.3974 253.626 82.4795 262.514 104.739L283.708 157.82C288.76 170.472 303.653 176.548 317.294 171.522L374.524 150.437C398.524 141.594 417.754 168.515 400.749 187.149L364.72 226.629C354.442 237.891 355.886 254.673 367.874 263.285L410.192 293.686C430.442 308.234 415.128 339.753 389.779 335.697L336.808 327.223C321.803 324.822 307.226 335.068 304.97 349.603L297.06 400.555C293.326 424.603 258.626 429.521 249.738 407.261L228.544 354.181C223.492 341.529 208.599 335.453 194.958 340.478L137.728 361.564C113.729 370.406 94.498 343.485 111.503 324.851L147.532 285.371C157.81 274.109 156.366 257.327 144.378 248.715L102.061 218.314Z" stroke="#F5F5F5" stroke-width="2"/>
<path opacity="0.275862" d="M107.187 212.162C87.7694 196.642 104.761 166.083 129.877 171.356L180.304 181.942C195.16 185.061 210.257 175.621 213.323 161.295L223.686 112.878C228.776 89.0973 263.809 86.0372 271.419 108.709L288.672 160.108C293.015 173.049 307.68 179.896 321.658 175.51L377.179 158.087C401.668 150.403 419.559 178.173 401.555 195.924L364.9 232.065C354.054 242.759 354.593 259.499 366.078 268.679L405.065 299.84C424.483 315.36 407.491 345.918 382.375 340.646L331.948 330.059C317.092 326.941 301.995 336.381 298.929 350.707L288.566 399.124C283.476 422.904 248.443 425.964 240.833 403.293L223.581 351.894C219.237 338.952 204.572 332.106 190.594 336.492L135.073 353.914C110.584 361.599 92.6936 333.829 110.697 316.077L147.353 279.937C158.198 269.243 157.66 252.503 146.174 243.322L107.187 212.162Z" stroke="#F5F5F5" stroke-width="2"/>
<path opacity="0.310345" d="M112.565 206.374C94.0338 189.92 112.628 160.408 137.444 166.888L185.267 179.374C199.933 183.203 215.495 174.596 219.352 160.522L231.902 114.725C238.327 91.2798 273.586 90.1103 279.895 113.133L293.447 162.585C297.065 175.787 311.466 183.406 325.752 179.676L379.265 165.705C404.178 159.2 420.703 187.765 401.757 204.586L364.75 237.444C353.377 247.542 353.023 264.195 363.975 273.919L399.687 305.626C418.219 322.08 399.624 351.592 374.808 345.112L326.986 332.627C312.319 328.797 296.758 337.404 292.901 351.479L280.351 397.275C273.926 420.72 238.667 421.89 232.357 398.867L218.805 349.415C215.187 336.213 200.787 328.594 186.501 332.324L132.988 346.295C108.074 352.8 91.5498 324.235 110.496 307.414L147.502 274.556C158.875 264.458 159.229 247.805 148.277 238.081L112.565 206.374Z" stroke="#F5F5F5" stroke-width="2"/>
<path opacity="0.344828" d="M118.173 200.963C100.579 183.616 120.696 155.231 145.146 162.903L190.313 177.076C204.75 181.606 220.721 173.856 225.347 160.074L239.815 116.968C247.551 93.9229 282.922 94.6695 287.912 117.983L298.028 165.244C300.903 178.677 315.002 187.067 329.564 184.01L380.795 173.255C406.067 167.95 421.198 197.256 401.37 213.105L364.28 242.75C352.422 252.227 351.19 268.749 361.579 278.992L394.08 311.037C411.674 328.384 391.557 356.77 367.107 349.097L321.939 334.924C307.503 330.394 291.532 338.145 286.906 351.926L272.437 395.033C264.702 418.077 229.331 417.331 224.341 394.017L214.225 346.756C211.35 333.323 197.251 324.933 182.689 327.99L131.458 338.745C106.186 344.05 91.0544 314.744 110.883 298.896L147.973 269.251C159.831 259.773 161.063 243.251 150.674 233.009L118.173 200.963Z" stroke="#F5F5F5" stroke-width="2"/>
<path opacity="0.37931" d="M123.986 195.938C107.38 177.742 128.937 150.553 152.955 159.402L195.427 175.05C209.595 180.27 225.917 173.394 231.288 159.943L247.404 119.581C256.42 97.0002 291.789 99.6808 295.444 123.222L302.406 168.073C304.523 181.706 318.281 190.865 333.084 188.497L381.786 180.705C407.349 176.615 421.06 206.611 400.41 221.446L363.498 247.964C351.197 256.801 349.105 273.15 358.901 283.884L388.267 316.062C404.873 334.259 383.315 361.448 359.298 352.599L316.826 336.951C302.657 331.731 286.335 338.606 280.965 352.057L264.849 392.42C255.832 415.001 220.463 412.32 216.809 388.779L209.846 343.928C207.729 330.295 193.972 321.136 179.168 323.504L130.466 331.296C104.904 335.385 91.1918 305.39 111.842 290.555L148.754 264.037C161.055 255.2 163.147 238.851 153.351 228.117L123.986 195.938Z" stroke="#F5F5F5" stroke-width="2"/>
<path opacity="0.413793" d="M129.981 191.307C114.41 172.307 137.322 146.38 160.842 156.386L200.589 173.295C214.451 179.192 231.067 173.205 237.157 160.121L254.646 122.541C264.911 100.484 300.159 105.108 302.467 128.814L306.578 171.062C307.921 184.861 321.295 194.785 336.304 193.12L382.257 188.022C408.042 185.161 420.306 215.792 398.896 229.579L362.418 253.068C349.716 261.247 346.781 277.385 355.957 288.583L382.271 320.694C397.842 339.694 374.93 365.621 351.41 355.615L311.663 338.706C297.801 332.809 281.185 338.796 275.095 351.88L257.606 389.46C247.341 411.517 212.093 406.893 209.786 383.187L205.674 340.939C204.331 327.14 190.957 317.216 175.948 318.881L129.995 323.979C104.21 326.84 91.9456 296.209 113.356 282.422L149.834 258.933C162.536 250.754 165.471 234.616 156.295 223.418L129.981 191.307Z" stroke="#F5F5F5" stroke-width="2"/>
<path opacity="0.448276" d="M136.133 187.078C121.644 167.322 145.824 142.714 168.78 153.854L205.785 171.81C219.301 178.369 236.155 173.282 242.936 160.596L261.525 125.82C273.003 104.346 308.01 110.915 308.961 134.722L310.538 174.202C311.094 188.133 324.039 198.813 339.216 197.864L382.231 195.175C408.168 193.553 418.957 224.768 396.85 237.473L361.05 258.049C347.991 265.554 344.231 281.445 352.762 293.077L376.119 324.923C390.609 344.679 366.428 369.287 343.472 358.147L306.467 340.191C292.951 333.632 276.098 338.719 269.317 351.405L250.728 386.181C239.249 407.655 204.243 401.086 203.292 377.279L201.715 337.798C201.158 323.868 188.213 313.188 173.036 314.137L130.022 316.826C104.084 318.448 93.2959 287.233 115.403 274.528L151.202 253.952C164.262 246.447 168.022 230.556 159.49 218.924L136.133 187.078Z" stroke="#F5F5F5" stroke-width="2"/>
<path opacity="0.482759" d="M142.417 183.257C129.052 162.796 154.412 139.558 176.741 151.805L210.996 170.594C224.13 177.798 241.164 173.615 248.607 161.359L268.021 129.392C280.676 108.556 315.319 117.062 314.908 140.905L314.279 177.483C314.037 191.508 326.507 202.934 341.812 202.713L381.73 202.136C407.75 201.76 417.032 233.505 394.294 245.1L359.409 262.89C346.033 269.711 341.469 285.319 349.331 297.354L369.835 328.744C383.2 349.204 357.84 372.443 335.512 360.196L301.256 341.407C288.122 334.203 271.088 338.385 263.645 350.642L244.231 382.608C231.576 403.444 196.933 394.938 197.344 371.096L197.973 334.517C198.215 320.493 185.745 309.066 170.44 309.287L130.522 309.864C104.502 310.24 95.2196 278.496 117.958 266.9L152.843 249.111C166.219 242.29 170.783 226.681 162.921 214.646L142.417 183.257Z" stroke="#F5F5F5" stroke-width="2"/>
<path opacity="0.517241" d="M148.806 179.849C136.605 158.738 163.059 136.913 184.696 150.238L216.207 169.643C228.922 177.474 246.081 174.199 254.158 162.399L274.124 133.23C287.913 113.084 322.07 123.51 320.297 147.324L317.797 180.895C316.748 194.976 328.695 207.134 344.086 207.65L380.784 208.881C406.814 209.754 414.56 241.972 391.254 252.433L357.509 267.579C343.858 273.706 338.51 289 345.68 301.407L363.447 332.152C375.648 353.263 349.194 375.089 327.557 361.764L296.046 342.358C283.331 334.527 266.172 337.803 258.095 349.602L238.13 378.771C224.34 398.917 190.183 388.491 191.956 364.677L194.456 331.106C195.505 317.025 183.558 304.867 168.167 304.351L131.469 303.12C105.439 302.247 97.693 270.029 120.999 259.568L154.744 244.422C168.395 238.295 173.743 223.001 166.573 210.594L148.806 179.849Z" stroke="#F5F5F5" stroke-width="2"/>
<path opacity="0.551724" d="M155.271 176.859C144.273 155.153 171.732 134.777 192.616 149.148L221.401 168.954C233.662 177.391 250.892 175.021 259.57 163.704L279.818 137.302C294.699 117.897 328.25 130.218 325.116 153.936L321.087 184.428C319.224 198.525 330.597 211.395 346.032 212.656L379.419 215.385C405.389 217.507 411.565 250.14 387.758 259.444L355.364 272.103C341.479 277.529 335.367 292.479 341.824 305.223L356.982 335.141C367.98 356.847 340.521 377.223 319.637 362.853L290.852 343.046C278.591 334.609 261.361 336.979 252.682 348.296L232.435 374.698C217.554 394.103 184.003 381.782 187.137 358.064L191.166 327.572C193.029 313.475 181.655 300.605 166.221 299.344L132.834 296.616C106.864 294.493 100.688 261.86 124.495 252.556L156.889 239.898C170.774 234.472 176.885 219.521 170.429 206.777L155.271 176.859Z" stroke="#F5F5F5" stroke-width="2"/>
<path opacity="0.586207" d="M161.784 174.289C152.024 152.046 180.402 133.153 200.472 148.532L226.562 168.524C238.335 177.545 255.582 176.076 264.833 165.264L285.096 141.581C301.024 122.964 333.847 137.145 329.359 160.703L324.144 188.073C321.463 202.144 332.213 215.703 347.646 217.715L377.665 221.628C403.503 224.996 408.078 257.983 383.834 266.111L352.992 276.452C338.911 281.172 332.057 295.749 337.782 308.797L350.469 337.711C360.229 359.955 331.85 378.848 311.78 363.469L285.691 343.477C273.918 334.456 256.67 335.925 247.42 346.737L227.157 370.42C211.229 389.037 178.405 374.856 182.894 351.298L188.109 323.927C190.79 309.856 180.04 296.298 164.607 294.286L134.588 290.373C108.75 287.005 104.175 254.018 128.419 245.89L159.261 235.549C173.342 230.828 180.196 216.251 174.471 203.203L161.784 174.289Z" stroke="#F5F5F5" stroke-width="2"/>
<path opacity="0.62069" d="M168.316 172.14C159.826 149.42 189.039 132.036 208.236 148.384L231.675 168.346C242.927 177.928 260.142 177.351 269.933 167.065L289.951 146.035C306.879 128.252 338.857 144.247 333.023 167.58L326.963 191.819C323.462 205.822 333.54 220.042 348.924 222.806L375.555 227.592C401.189 232.199 404.129 265.475 379.515 272.412L350.407 280.615C336.169 284.628 328.593 298.804 333.569 312.121L343.936 339.861C352.427 362.581 323.213 379.965 304.016 363.616L280.577 343.655C269.325 334.073 252.111 334.649 242.319 344.936L222.301 365.966C205.374 383.749 173.395 367.753 179.229 344.421L185.289 320.181C188.79 306.178 178.713 291.959 163.329 289.194L136.698 284.408C111.064 279.801 108.124 246.526 132.738 239.589L161.846 231.385C176.083 227.372 183.66 213.196 178.683 199.88L168.316 172.14Z" stroke="#F5F5F5" stroke-width="2"/>
<path opacity="0.655172" d="M174.838 170.409C167.645 147.275 197.611 131.422 215.878 148.697L236.727 168.414C247.425 178.531 264.558 178.837 274.86 169.095L294.38 150.635C312.258 133.727 343.277 151.485 336.112 174.526L329.542 195.657C325.223 209.547 334.577 224.394 349.865 227.912L373.12 233.263C398.479 239.098 399.752 272.592 374.833 278.326L347.627 284.586C333.269 287.89 324.991 301.639 329.204 315.187L337.414 341.591C344.607 364.725 314.641 380.579 296.374 363.303L275.525 343.586C264.827 333.469 247.694 333.163 237.392 342.905L217.873 361.365C199.994 378.273 168.976 360.516 176.14 337.474L182.711 316.344C187.03 302.453 177.676 287.606 162.388 284.089L139.132 278.737C113.774 272.902 112.501 239.408 137.419 233.675L164.626 227.414C178.984 224.11 187.261 210.361 183.048 196.813L174.838 170.409Z" stroke="#F5F5F5" stroke-width="2"/>
<path opacity="0.689655" d="M181.32 169.089C175.449 145.605 206.086 131.3 223.369 149.456L241.703 168.717C251.817 179.343 268.822 180.517 279.603 171.336L298.38 155.345C317.159 139.353 347.107 158.81 338.629 181.495L331.875 199.568C326.742 213.303 335.325 228.738 350.468 233.005L370.394 238.622C395.406 245.671 394.981 279.309 369.824 283.83L344.668 288.351C330.225 290.947 321.268 304.243 324.704 317.986L330.932 342.899C336.804 366.383 306.166 380.688 288.884 362.532L270.549 343.271C260.435 332.646 243.431 331.471 232.65 340.652L213.873 356.643C195.094 372.635 165.145 353.178 173.623 330.493L180.378 312.42C185.51 298.685 176.928 283.25 161.785 278.983L141.858 273.367C116.847 266.317 117.271 232.679 142.429 228.158L167.584 223.637C182.027 221.042 190.985 207.745 187.549 194.002L181.32 169.089Z" stroke="#F5F5F5" stroke-width="2"/>
<path opacity="0.724138" d="M187.731 168.185C183.202 144.417 214.433 131.676 230.679 150.664L246.59 169.26C256.09 180.364 272.922 182.393 284.151 173.788L301.953 160.148C321.58 145.107 350.353 166.194 340.584 188.459L333.959 203.556C328.021 217.089 335.785 233.068 350.733 238.08L367.41 243.671C392.004 251.917 389.853 285.62 364.521 288.922L341.548 291.916C327.055 293.806 317.438 306.625 320.086 320.525L324.521 343.803C329.05 367.571 297.819 380.313 281.574 361.325L265.663 342.728C256.162 331.624 239.331 329.595 228.101 338.2L210.3 351.841C190.672 366.881 161.899 345.795 171.669 323.529L178.293 308.432C184.231 294.899 176.467 278.92 161.519 273.908L144.842 268.317C120.248 260.072 122.399 226.369 147.731 223.067L170.704 220.072C185.198 218.183 194.815 205.363 192.166 191.464L187.731 168.185Z" stroke="#F5F5F5" stroke-width="2"/>
<path opacity="0.758621" d="M194.041 167.686C190.872 143.701 222.62 132.534 237.779 152.301L251.374 170.029C260.233 181.582 276.85 184.447 288.498 176.432L305.102 165.007C325.525 150.954 353.023 173.591 341.987 195.373L335.791 207.604C329.059 220.889 335.961 237.364 350.665 243.11L364.201 248.4C388.308 257.82 384.403 291.503 358.963 293.582L338.282 295.272C323.772 296.458 313.517 308.776 315.369 322.794L318.211 344.304C321.38 368.289 289.633 379.456 274.473 359.688L260.878 341.961C252.019 330.408 235.403 327.542 223.754 335.557L207.15 346.982C186.727 361.035 159.229 338.398 170.265 316.616L176.461 304.386C183.193 291.1 176.291 274.625 161.587 268.879L148.051 263.59C123.944 254.169 127.849 220.486 153.289 218.407L173.97 216.717C188.48 215.531 198.735 203.213 196.883 189.195L194.041 167.686Z" stroke="#F5F5F5" stroke-width="2"/>
<path opacity="0.793103" d="M200.221 167.579C198.424 143.446 230.614 133.862 244.64 154.354L256.044 171.013C264.237 182.983 280.598 186.668 292.636 179.254L307.833 169.895C328.999 156.861 355.129 180.963 342.856 202.2L337.368 211.697C329.858 224.691 335.856 241.606 350.266 248.074L360.799 252.801C384.35 263.372 378.671 296.945 353.187 297.8L334.888 298.414C320.394 298.9 309.521 310.693 310.571 324.79L312.032 344.41C313.829 368.542 281.638 378.127 267.612 357.635L256.209 340.975C248.016 329.005 231.655 325.321 219.617 332.734L204.419 342.094C183.254 355.128 157.124 331.025 169.396 309.789L174.885 300.291C182.394 287.297 176.396 270.382 161.986 263.914L151.454 259.187C127.903 248.617 133.582 215.043 159.066 214.188L177.364 213.574C191.859 213.088 202.732 201.295 201.682 187.199L200.221 167.579Z" stroke="#F5F5F5" stroke-width="2"/>
<path opacity="0.827586" d="M206.241 167.855C205.824 143.644 238.385 135.649 251.235 156.807L260.588 172.207C268.09 184.561 284.158 189.044 296.556 182.243L310.155 174.784C332.006 162.799 356.684 188.275 343.208 208.905L338.687 215.827C330.419 228.484 335.477 245.781 349.543 252.954L357.235 256.877C380.163 268.569 372.693 301.938 347.229 301.57L331.382 301.341C316.934 301.132 305.465 312.377 305.709 326.512L306.012 344.134C306.429 368.345 273.867 376.34 261.018 355.182L251.665 339.782C244.163 327.428 228.095 322.945 215.696 329.746L202.098 337.205C180.246 349.19 155.568 323.714 169.045 303.084L173.566 296.162C181.834 283.505 176.776 266.208 162.709 259.035L155.017 255.112C132.089 243.42 139.56 210.051 165.023 210.419L180.87 210.648C195.319 210.857 206.787 199.612 206.544 185.477L206.241 167.855Z" stroke="#F5F5F5" stroke-width="2"/>
<path opacity="0.862069" d="M212.072 168.499C213.039 144.28 245.901 137.88 257.535 159.644L264.995 173.6C271.785 186.302 287.524 191.563 300.254 185.386L312.077 179.649C334.557 168.74 357.707 195.491 343.064 215.456L339.747 219.979C330.743 232.255 334.829 249.871 348.504 257.731L353.541 260.626C375.781 273.408 366.506 306.473 341.127 304.887L327.78 304.052C313.409 303.153 301.366 313.826 300.801 327.96L300.181 343.49C299.213 367.709 266.351 374.109 254.718 352.345L247.258 338.389C240.468 325.687 224.729 320.426 211.999 326.603L200.176 332.34C177.695 343.249 154.546 316.498 169.189 296.533L172.506 292.01C181.51 279.734 177.424 262.118 163.749 254.258L158.711 251.363C136.472 238.581 145.746 205.516 171.125 207.102L184.473 207.937C198.844 208.836 210.887 198.164 211.452 184.029L212.072 168.499Z" stroke="#F5F5F5" stroke-width="2"/>
<path opacity="0.896552" d="M217.687 169.495C220.038 145.34 253.132 140.537 263.514 162.844L269.256 175.182C275.313 188.197 290.689 194.215 303.723 188.67L313.61 184.464C336.662 174.657 358.215 202.579 342.446 221.822L340.546 224.141C330.833 235.994 333.921 253.862 347.156 262.385L349.745 264.052C371.232 277.888 360.15 310.547 334.919 307.747L324.097 306.547C309.832 304.964 297.237 315.041 295.866 329.134L294.566 342.494C292.215 366.65 259.121 371.453 248.739 349.145L242.997 336.807C236.939 323.792 221.563 317.775 208.53 323.319L198.643 327.525C175.59 337.332 154.037 309.41 169.807 290.167L171.706 287.848C181.42 275.995 178.332 258.127 165.096 249.604L162.508 247.938C141.021 234.102 152.102 201.443 177.334 204.242L188.156 205.443C202.421 207.025 215.015 196.949 216.387 182.855L217.687 169.495Z" stroke="#F5F5F5" stroke-width="2"/>
<path opacity="0.931035" d="M223.06 170.826C226.789 146.804 260.048 143.601 269.146 166.387L273.36 176.943C278.668 190.235 293.65 196.986 306.958 192.083L314.767 189.205C338.291 180.538 358.03 209.732 341.148 228.231C330.755 239.62 332.839 257.794 345.59 266.953C366.3 281.832 353.616 314.148 328.64 310.152L320.349 308.826C306.218 306.565 293.096 316.023 290.92 330.036L289.193 341.163C285.463 365.185 252.205 368.388 243.107 345.602L238.892 335.046C233.585 321.754 218.603 315.003 205.294 319.906L197.485 322.784C173.961 331.451 154.223 302.257 171.104 283.758C181.498 272.369 179.413 254.195 166.663 245.036C145.953 230.157 158.636 197.841 183.613 201.837L191.904 203.163C206.034 205.424 219.157 195.966 221.332 181.954L223.06 170.826Z" stroke="#F5F5F5" stroke-width="2"/>
<path opacity="0.965517" d="M228.165 172.47C233.263 148.653 266.62 147.051 274.407 170.249L277.301 178.872C281.842 192.403 296.4 199.865 309.956 195.612L317.12 193.363C340.749 185.949 358.646 215.404 341.052 232.75C330.179 243.471 331.202 261.357 343.239 270.978C362.714 286.544 348.275 317.551 323.931 312.441L316.549 310.891C302.583 307.959 288.956 316.775 285.982 330.667L284.088 339.519C278.99 363.337 245.633 364.939 237.846 341.74L234.952 333.117C230.41 319.587 215.852 312.124 202.297 316.378L195.132 318.626C171.504 326.041 153.607 296.586 171.2 279.239C182.074 268.519 181.051 250.632 169.014 241.012C149.538 225.445 163.977 194.438 188.322 199.549L195.704 201.098C209.67 204.03 223.297 195.214 226.27 181.323L228.165 172.47Z" stroke="#F5F5F5" stroke-width="2"/>
<path d="M232.98 174.406C239.431 150.863 272.821 150.863 279.273 174.406L281.069 180.959C284.831 194.689 298.937 202.84 312.712 199.244L319.454 197.484C343.002 191.336 358.869 221.031 340.67 237.19C329.402 247.194 329.402 264.795 340.67 274.799C358.869 290.958 343.002 320.653 319.454 314.505L312.712 312.745C298.937 309.149 284.831 317.3 281.069 331.03L279.273 337.583C272.821 361.126 239.431 361.126 232.98 337.583L231.184 331.03C227.421 317.3 213.315 309.149 199.54 312.745L192.799 314.505C169.251 320.653 153.384 290.958 171.583 274.799C182.851 264.795 182.851 247.194 171.583 237.19C153.384 221.031 169.251 191.336 192.799 197.484L199.54 199.244C213.315 202.84 227.421 194.689 231.184 180.959L232.98 174.406Z" stroke="#F5F5F5" stroke-width="2"/>
</g>
<defs>
<clipPath id="clip0_222_1356">
<rect width="512" height="512" fill="white"/>
</clipPath>
</defs>
</svg>
